<svg width="23" height="23" viewBox="0 0 23 23" fill="none" xmlns="http://www.w3.org/2000/svg">
<path d="M17.7319 6.2958C17.639 6.20207 17.5284 6.12768 17.4065 6.07691C17.2846 6.02614 17.1539 6 17.0219 6C16.8899 6 16.7592 6.02614 16.6373 6.07691C16.5155 6.12768 16.4049 6.20207 16.3119 6.2958L8.86192 13.7558L5.73192 10.6158C5.6354 10.5226 5.52146 10.4492 5.3966 10.4C5.27175 10.3508 5.13843 10.3267 5.00424 10.329C4.87006 10.3314 4.73765 10.3601 4.61458 10.4136C4.4915 10.4671 4.38016 10.5443 4.28692 10.6408C4.19368 10.7373 4.12037 10.8513 4.07117 10.9761C4.02196 11.101 3.99783 11.2343 4.00015 11.3685C4.00247 11.5027 4.0312 11.6351 4.0847 11.7581C4.13819 11.8812 4.2154 11.9926 4.31192 12.0858L8.15192 15.9258C8.24489 16.0195 8.35549 16.0939 8.47735 16.1447C8.59921 16.1955 8.72991 16.2216 8.86192 16.2216C8.99393 16.2216 9.12464 16.1955 9.2465 16.1447C9.36836 16.0939 9.47896 16.0195 9.57192 15.9258L17.7319 7.7658C17.8334 7.67216 17.9144 7.5585 17.9698 7.432C18.0252 7.30551 18.0539 7.1689 18.0539 7.0308C18.0539 6.8927 18.0252 6.75609 17.9698 6.62959C17.9144 6.50309 17.8334 6.38944 17.7319 6.2958Z" fill="#3B83F6"/>
</svg>
